Coordinates
version=1
nRows=10
nColumns=22
inDegrees=yes

Units are S.I. units (second, meters, Newtons, ...)
If the header above contains a line with 'inDegrees', this indicates whether rotational values are in degrees (yes) or radians (no).

endheader
time	pelvis_tilt	pelvis_list	pelvis_rotation	pelvis_tx	pelvis_ty	pelvis_tz	hip_flexion_r	hip_adduction_r	hip_rotation_r	knee_angle_r	ankle_angle_r	subtalar_angle_r	hip_flexion_l	hip_adduction_l	hip_rotation_l	knee_angle_l	ankle_angle_l	subtalar_angle_l	lumbar_extension	lumbar_bending	lumbar_rotation
      3.79000000	     -5.31477015	      3.62159360	    165.15732467	      0.49036926	      0.92611266	     -0.63271374	     -1.66390720	     -3.71794855	     -6.14635756	    -55.20084827	    -11.30850505	     17.19582880	      9.99275425	      6.69198773	    -15.30445553	    -23.39771242	     17.97973556	    -24.13846662	    -12.43908666	     -0.08309826	     -4.93924564
      3.80000000	     -5.38559124	      3.46219102	    165.93390860	      0.48154879	      0.92722145	     -0.63358770	     -0.02381861	     -4.18431382	     -5.87847514	    -56.55923018	    -10.22637764	     16.65703078	      8.98805122	      7.06968999	    -14.67501172	    -22.72254358	     18.12727290	    -23.74552709	    -12.55686698	     -0.04482731	     -5.49452332
      3.81000000	     -5.44456120	      3.35221341	    166.81404242	      0.47277237	      0.92839826	     -0.63424594	      1.55731337	     -4.57176022	     -5.68518434	    -57.59675885	     -9.02408961	     16.09156826	      7.97216027	      7.38823417	    -13.92565374	    -22.03495639	     18.32109878	    -23.40882133	    -12.67053589	      0.07026622	     -6.12247895
      3.82000000	     -5.46572015	      3.28311581	    167.78921731	      0.46410312	      0.92961031	     -0.63469468	      3.11195991	     -4.87341922	     -5.53153905	    -58.32319008	     -7.76071899	     15.52463350	      6.97623708	      7.65211327	    -12.99949257	    -21.31972571	     18.39776847	    -23.10550722	    -12.75330035	      0.25284317	     -6.79690740
      3.83000000	     -5.47289017	      3.26224553	    168.83557859	      0.45549076	      0.93084272	     -0.63501739	      4.60329648	     -5.09886779	     -5.42888433	    -58.74038648	     -6.42749603	     14.66356506	      5.97705456	      7.83799392	    -11.99449829	    -20.60024513	     18.53544776	    -22.80572980	    -12.81528187	      0.49789104	     -7.48982333
      3.84000000	     -5.46035032	      3.26319277	    169.95116859	      0.44698170	      0.93206086	     -0.63519621	      6.04935894	     -5.27232278	     -5.35265643	    -58.87231674	     -5.11652349	     13.82838344	      4.99302036	      7.97693371	    -10.85355119	    -19.87358692	     18.55332549	    -22.52909324	    -12.85389147	      0.77433918	     -8.20985938
      3.85000000	     -5.45807439	      3.29807689	    171.09018320	      0.43853464	      0.93324761	     -0.63533927	      7.41189036	     -5.38769787	     -5.27634808	    -58.72799435	     -3.77482456	     12.74029818	      3.99920249	      8.04092159	     -9.70615344	    -19.16971997	     18.65756169	    -22.26941223	    -12.89536527	      1.07906606	     -8.90075597
      3.86000000	     -5.46621464	      3.33623282	    172.25441020	      0.43016060	      0.93438420	     -0.63543409	      8.69844107	     -5.47407361	     -5.18765077	    -58.33022873	     -2.52500608	     11.59895554	      2.99901744	      8.07044713	     -8.48919238	    -18.47544066	     18.70740345	    -22.02564386	    -12.94004063	      1.37623237	     -9.57597044
      3.87000000	     -5.49173829	      3.37881386	    173.42885477	      0.42178502	      0.93546140	     -0.63551413	      9.89202777	     -5.53846045	     -5.09903608	    -57.69179393	     -1.39980849	     10.37611208	      1.97586138	      8.06052694	     -7.24285393	    -17.78142467	     18.71707942	    -21.80264682	    -12.98558614	      1.66625436	    -10.21910418
      3.88000000	     -5.54138005	      3.42363282	    174.57359304	      0.41348397	      0.93642554	     -0.63567796	     11.00523836	     -5.55861836	     -4.94438319	    -56.84592767	     -0.30043407	      9.03187760	      0.97041371	      8.00208944	     -6.04119914	    -17.17155810	     18.84424121	    -21.61107242	    -13.06017547	      1.93191722	    -10.80071965
